<svg xmlns="http://www.w3.org/2000/svg" viewBox="0 0 715 216" width="715" height="216">
	<style>
		tspan { white-space:pre }
		.shp0 { fill: #ffffff } 
	</style>
	<path id="Layer" class="shp0" d="M342.2 158.3L342.5 123.7L342.3 123.7L326.2 158.3L307.7 158.3L309 92.9L329.8 91.4L329 124.3L329.2 124.3L343.6 92.9L356.4 92.9L356 124.6L356.2 124.6L371.4 91.3L391 92.8L360.5 158.2L342.2 158.2L342.2 158.3Z" />
	<path id="Layer" fill-rule="evenodd" class="shp0" d="M434.4 133.7C430.6 149.6 416.3 159.8 401 159.8C385.7 159.8 376.3 149.6 380.1 133.7C383.9 117.8 398.2 107.6 413.6 107.6C428.9 107.6 438.2 117.8 434.4 133.7ZM399.9 133.7C398.8 138.5 400.8 141.6 405.3 141.6C409.8 141.6 413.4 138.4 414.6 133.7C415.7 129 413.6 125.8 409.2 125.8C404.6 125.8 401 129 399.9 133.7Z" />
	<path id="Layer" class="shp0" d="M459.6 131.5L459.8 131.5L470.6 108.3L483.6 108.3L483 131.6L483.2 131.6L494 107.5L512.2 109L487.2 158.2L469.6 158.2L470.2 135.8L470 135.8L459.7 158.2L442.2 158.2L440.8 109L460.2 107.5L459.6 131.5Z" />
	<path id="Layer" class="shp0" d="M546.8 158.3L547.2 123.7L547 123.7L531 158.3L512.5 158.3L513.8 92.9L534.6 91.4L533.8 124.3L534 124.3L548.4 92.9L561.2 92.9L560.8 124.6L561 124.6L576 91.4L595.6 92.9L565.1 158.3L546.8 158.3Z" />
	<path id="Layer" fill-rule="evenodd" class="shp0" d="M629.6 152.7C621.6 157.7 614.1 159.8 604.7 159.8C589.3 159.8 581.1 148.5 584.4 134.7C588.5 117.6 602.6 107.6 616.7 107.6C628 107.6 635.2 113.9 636.9 123.5L606.7 142.8C607.9 143.4 610.1 143.6 611.8 143.6C616.9 143.6 620.8 141.4 624.5 138.8L629.6 152.7ZM618.2 124.8C617.2 122.8 615.4 122.3 613 122.3C608.4 122.3 604.2 126.6 603.2 130.8C602.7 132.9 602.9 133.5 603.1 134.4L618.2 124.8Z" />
	<path id="Layer" fill-rule="evenodd" class="shp0" d="M682.6 152.7C674.5 157.7 667 159.8 657.7 159.8C642.3 159.8 634.1 148.5 637.4 134.7C641.5 117.6 655.6 107.6 669.7 107.6C681.1 107.6 688.2 113.9 690 123.5L659.8 142.8C661 143.4 663.2 143.6 664.9 143.6C670.1 143.6 673.9 141.4 677.6 138.8L682.6 152.7ZM671.2 124.8C670.1 122.8 668.4 122.3 666 122.3C661.5 122.3 657.3 126.6 656.2 130.8C655.7 132.9 655.9 133.5 656.1 134.4L671.2 124.8Z" />
	<path id="Layer" fill-rule="evenodd" class="shp0" d="M44.3 168.1C44.1 168.1 44 168.1 43.9 168.2L42.7 168.3C28.5 170.1 15.2 158.9 10.9 142.7C4.5 139.8 0 133.3 0 125.7C0 120 2.5 114.9 6.7 111.5C5.4 93.3 15.8 77.4 30.7 75.1C44.4 31.9 85.5 0 133.3 0C181.1 0 222.2 31.9 235.9 75.2C250.8 77.4 261.3 93.4 259.9 111.6C264 115 266.5 120.1 266.5 125.8C266.5 133.3 262 139.9 255.6 142.8C251.3 159 238 170.2 223.8 168.4L222.6 168.3C222.4 168.3 222.3 168.2 222.1 168.2C203 196.3 170 215.2 133.3 215.2C96.6 215.2 63.6 196.2 44.3 168.1ZM132.9 74.8C82.1 74.8 41 96.5 41 123.3C41 150.2 82.1 171.9 132.9 171.9C183.6 171.9 224.8 150.2 224.8 123.3C224.8 96.5 183.6 74.8 132.9 74.8ZM118.5 123.7C118.5 138.7 106.3 150.9 91.3 150.9C76.3 150.9 64.1 138.8 64.1 123.7C64.1 108.7 76.2 96.5 91.3 96.5C106.3 96.5 118.5 108.7 118.5 123.7ZM201 123.7C201 138.7 188.8 150.9 173.8 150.9C158.8 150.9 146.6 138.8 146.6 123.7C146.6 108.7 158.7 96.5 173.8 96.5C188.8 96.5 201 108.7 201 123.7Z" />
	<path id="Layer" class="shp0" d="M701.1 147.7L701.1 149.4L697.8 149.4L697.8 158.1L695.7 158.1L695.7 149.4L692.4 149.4L692.4 147.7L701.1 147.7ZM712.3 158.2L711.9 152.1C711.8 151.3 711.8 150.3 711.8 149.2L711.7 149.2C711.4 150.2 711.1 151.3 710.8 152.3L709 158L706.9 158L705 152.1C704.8 151.3 704.5 150.1 704.3 149.2L704.2 149.2C704.2 150.2 704.2 151.2 704.1 152.1L703.7 158.2L701.7 158.2L702.5 147.8L705.6 147.8L707.4 152.9C707.6 153.7 707.8 154.5 708.1 155.6L708.1 155.6C708.4 154.7 708.6 153.8 708.8 153L710.6 147.8L713.6 147.8L714.4 158.2L712.3 158.2Z" />
</svg>